# xmcd
#
# Track frame offsets:
#	150
#	17037
#	33747
#	53587
#
# Disc length: 1058 seconds
#
# Revision: 1
# Processed by: cddbd v1.4b41PL2 Copyright (c) Steve Scherf et al.
# Submitted via: audiograbber 1.80
#
DISCID=2a042004
DTITLE=LeAnn Rimes - I Need You - The Remixes
DYEAR=1900
DGENRE=
TTITLE0=Graham Stack Radio Edit
TTITLE1=Almighty Mix Edit
TTITLE2=Dave Aude Radio Edit
TTITLE3=Dataluxe Club Mix Edit
EXTD=
EXTT0=
EXTT1=
EXTT2=
EXTT3=
PLAYORDER=
